<?xml version="1.0" standalone="no"?>
<svg xmlns:xlink="http://www.w3.org/1999/xlink" id="wave" style="transform:rotate(0deg); transition: 0.3s" viewBox="0 0 1440 490" version="1.1" xmlns="http://www.w3.org/2000/svg"><defs><linearGradient id="sw-gradient-0" x1="0" x2="0" y1="1" y2="0"><stop stop-color="rgba(243, 106, 62, 1)" offset="0%"/><stop stop-color="rgba(255, 179, 11, 1)" offset="100%"/></linearGradient></defs><path style="transform:translate(0, 0px); opacity:1" fill="url(#sw-gradient-0)" d="M0,147L60,171.5C120,196,240,245,360,253.2C480,261,600,229,720,187.8C840,147,960,98,1080,73.5C1200,49,1320,49,1440,73.5C1560,98,1680,147,1800,171.5C1920,196,2040,196,2160,228.7C2280,261,2400,327,2520,318.5C2640,310,2760,229,2880,187.8C3000,147,3120,147,3240,155.2C3360,163,3480,180,3600,171.5C3720,163,3840,131,3960,171.5C4080,212,4200,327,4320,343C4440,359,4560,278,4680,228.7C4800,180,4920,163,5040,130.7C5160,98,5280,49,5400,65.3C5520,82,5640,163,5760,228.7C5880,294,6000,343,6120,326.7C6240,310,6360,229,6480,212.3C6600,196,6720,245,6840,236.8C6960,229,7080,163,7200,163.3C7320,163,7440,229,7560,277.7C7680,327,7800,359,7920,326.7C8040,294,8160,196,8280,204.2C8400,212,8520,327,8580,383.8L8640,441L8640,490L8580,490C8520,490,8400,490,8280,490C8160,490,8040,490,7920,490C7800,490,7680,490,7560,490C7440,490,7320,490,7200,490C7080,490,6960,490,6840,490C6720,490,6600,490,6480,490C6360,490,6240,490,6120,490C6000,490,5880,490,5760,490C5640,490,5520,490,5400,490C5280,490,5160,490,5040,490C4920,490,4800,490,4680,490C4560,490,4440,490,4320,490C4200,490,4080,490,3960,490C3840,490,3720,490,3600,490C3480,490,3360,490,3240,490C3120,490,3000,490,2880,490C2760,490,2640,490,2520,490C2400,490,2280,490,2160,490C2040,490,1920,490,1800,490C1680,490,1560,490,1440,490C1320,490,1200,490,1080,490C960,490,840,490,720,490C600,490,480,490,360,490C240,490,120,490,60,490L0,490Z"/></svg>